# Blender v2.90.1 OBJ File: ''
# www.blender.org
mtllib concrete6.mtl
o ConcreteCylinder
v -0.026409 0.056632 0.078491
v -0.021761 0.037524 0.088244
v 0.002655 0.061482 0.082211
v -0.051849 0.047258 0.074254
v 0.004848 0.006022 0.099037
v 0.024604 0.017189 0.098517
v 0.020041 0.050794 0.088815
v 0.030425 0.052249 0.088258
v 0.021392 0.079039 0.081090
v 0.043686 0.030436 0.090725
v 0.042194 0.062716 0.071411
v 0.053096 0.045056 0.067087
v -0.046098 0.015911 0.085291
v -0.055636 -0.056704 0.080568
v -0.039250 -0.018204 0.089198
v -0.027841 0.015309 0.092663
v -0.020614 -0.017870 0.095719
v 0.036185 -0.003263 0.098062
v 0.053314 0.002457 0.086076
v 0.061549 0.019833 0.074686
v -0.041322 -0.085696 0.088257
v -0.000611 -0.055543 0.097996
v 0.023469 -0.065980 0.098694
v 0.058568 -0.044329 0.087994
v 0.046857 -0.062645 0.094816
v 0.065997 -0.016068 0.075163
v -0.028887 -0.073330 0.093289
v -0.003798 -0.079894 0.096893
v 0.036300 -0.100729 0.096821
v -0.052333 -0.111083 0.082822
v -0.002012 -0.109377 0.098905
v -0.019467 -0.115849 0.096952
v 0.053418 -0.113450 0.092870
v 0.074826 -0.077589 0.080340
v 0.077512 -0.116408 0.080429
v -0.006750 -0.119992 0.100301
v -0.028017 0.152373 0.042741
v -0.009746 0.140374 0.059851
v -0.006691 0.154584 0.052047
v 0.006528 0.151478 0.051746
v 0.019806 0.133543 0.058575
v 0.011874 0.149847 0.039730
v 0.022010 0.126377 0.026049
v -0.021635 0.122918 0.057943
v -0.002769 0.120869 0.074393
v -0.012932 0.098807 0.069831
v -0.043564 0.115976 0.045546
v -0.047867 0.084378 0.060410
v -0.034245 0.091597 0.060265
v 0.013108 0.131752 0.072924
v 0.016516 0.110277 0.076919
v 0.022978 0.114891 0.072571
v 0.003870 0.087776 0.075890
v 0.030132 0.113936 0.056591
v 0.031643 0.090678 0.068421
v 0.028590 0.118035 0.040024
v 0.049526 0.098781 0.050695
v -0.066160 0.055591 0.062833
v -0.062739 0.081403 0.056930
v -0.065838 0.102111 0.037028
v -0.077513 0.078863 0.040127
v -0.022062 0.072788 0.071324
v 0.055526 0.063395 0.049306
v 0.050825 0.090951 0.037542
v -0.081141 0.054195 0.044458
v -0.092101 0.029374 0.031395
v -0.077882 0.027764 0.056422
v -0.063561 0.022066 0.073598
v 0.067555 0.037420 0.050091
v -0.095036 -0.001082 0.031653
v -0.074810 -0.016416 0.063075
v -0.083742 -0.038210 0.052549
v -0.064656 -0.041060 0.073621
v 0.071654 0.010595 0.060468
v 0.088557 -0.015483 0.057980
v 0.085578 0.015918 0.039481
v 0.098237 -0.013332 0.041903
v 0.080039 -0.040517 0.072923
v 0.097107 -0.050888 0.056929
v 0.102429 -0.039857 0.043365
v -0.074415 -0.104834 0.065895
v 0.097017 -0.077574 0.060233
v 0.093346 -0.102111 0.065918
v 0.113100 -0.073006 0.039274
v -0.087237 -0.104893 0.048953
v -0.093787 -0.050246 0.035934
v -0.071499 -0.122102 0.072672
v 0.095241 -0.119287 0.067871
v 0.106549 -0.119287 0.054859
v 0.115561 -0.110474 0.038289
v -0.081009 -0.122342 0.063171
v -0.055937 0.137319 -0.003538
v -0.045348 0.152108 0.018066
v -0.048317 0.154019 -0.004201
v -0.028135 0.167825 0.029010
v -0.011332 0.166239 0.035441
v -0.019263 0.165378 0.015760
v 0.003884 0.155045 0.026483
v -0.040105 0.144898 0.031768
v -0.034479 0.166473 0.009885
v 0.011522 0.138847 0.013088
v -0.017376 0.151536 -0.005900
v -0.051254 0.125024 0.031696
v -0.067027 0.104522 0.026041
v -0.060139 0.116609 0.007634
v -0.068996 0.099969 0.007563
v 0.039691 0.101231 0.017993
v 0.022052 0.108701 0.002915
v -0.083654 0.080522 0.026041
v -0.090499 0.055936 0.021562
v -0.089331 0.050049 0.001167
v -0.080584 0.084143 -0.000448
v 0.057243 0.070953 0.030793
v 0.053438 0.078790 0.016465
v 0.054028 0.066688 0.002673
v -0.098531 0.015236 0.016994
v 0.068229 0.046630 0.028312
v 0.065600 0.048680 0.002894
v 0.074105 0.034006 0.012176
v -0.102366 -0.018472 0.011029
v -0.100588 0.006175 -0.003980
v 0.090130 0.013121 0.019006
v 0.109949 -0.039380 0.026203
v 0.098171 -0.012931 0.012077
v -0.103119 -0.063356 0.008757
v 0.115420 -0.057510 0.016876
v 0.108898 -0.066327 -0.004711
v -0.096667 -0.095566 0.027921
v 0.121457 -0.087120 0.022274
v 0.118947 -0.081320 0.004818
v -0.094567 -0.119374 0.038334
v -0.103363 -0.114704 0.010327
v 0.122618 -0.119287 0.030741
v 0.124968 -0.107772 0.011647
v 0.128140 -0.119286 0.016876
v 0.126907 -0.119286 -0.006330
v -0.058259 0.128683 -0.019901
v -0.039349 0.153490 -0.015333
v -0.036830 0.126126 -0.030594
v -0.024962 0.119532 -0.033030
v -0.007953 0.130128 -0.011883
v -0.067262 0.110249 -0.010854
v -0.069978 0.093955 -0.024711
v -0.049707 0.113371 -0.031534
v -0.062400 0.095760 -0.032826
v 0.020529 0.082860 -0.019497
v -0.009341 0.104690 -0.027884
v -0.081069 0.072532 -0.019901
v -0.074105 0.059762 -0.033451
v 0.036446 0.077077 -0.005397
v 0.002952 0.083570 -0.034119
v -0.087441 0.046741 -0.016787
v -0.099626 0.009714 -0.022040
v -0.086445 0.032610 -0.029595
v 0.053234 0.053410 -0.012588
v 0.072358 0.033992 -0.011970
v 0.034538 0.042405 -0.034375
v 0.064265 0.034829 -0.020268
v 0.048946 0.022961 -0.031856
v 0.064486 0.019834 -0.029125
v 0.090679 -0.000017 -0.006419
v 0.086722 0.016602 -0.016082
v 0.094784 -0.010333 -0.021370
v 0.080525 0.010845 -0.027891
v 0.089335 -0.017766 -0.034237
v -0.104423 -0.030015 -0.006272
v -0.100970 -0.027519 -0.024338
v 0.098796 -0.036950 -0.012088
v 0.094139 -0.035582 -0.032885
v -0.105536 -0.075269 -0.020769
v -0.104700 -0.098458 -0.014393
v -0.100742 -0.056541 -0.041726
v 0.100145 -0.066522 -0.031816
v 0.109778 -0.094924 -0.032272
v -0.107778 -0.124468 -0.029955
v 0.121443 -0.111194 -0.015834
v 0.121399 -0.119021 -0.041491
v -0.108740 -0.124692 -0.001689
v -0.043924 0.083121 -0.048571
v -0.063443 0.053939 -0.048806
v -0.008977 0.062286 -0.055802
v -0.029897 0.072283 -0.056827
v 0.018886 0.042864 -0.054211
v -0.072888 0.021347 -0.047147
v -0.052046 0.040199 -0.061797
v -0.062914 0.009324 -0.065895
v -0.039062 0.040880 -0.067239
v -0.013271 0.035120 -0.072252
v 0.034949 0.000122 -0.069282
v 0.007689 0.030277 -0.072102
v -0.083770 -0.008131 -0.041756
v -0.072256 -0.012390 -0.061922
v 0.042365 0.013004 -0.043049
v 0.062935 -0.006009 -0.042344
v 0.052353 -0.012274 -0.053095
v 0.078351 -0.009438 -0.038906
v -0.087728 -0.027467 -0.050379
v 0.070300 -0.034400 -0.060387
v 0.047881 -0.034936 -0.074612
v 0.084987 -0.049125 -0.059219
v 0.092185 -0.054779 -0.052684
v -0.101499 -0.099760 -0.047735
v -0.088795 -0.041619 -0.070323
v -0.092377 -0.068879 -0.065623
v 0.098935 -0.090565 -0.061210
v 0.086567 -0.081052 -0.073738
v -0.102160 -0.119286 -0.053683
v -0.091394 -0.105135 -0.072769
v 0.108138 -0.116546 -0.070441
v 0.123203 -0.126336 -0.057386
v -0.052215 -0.004174 -0.080663
v -0.029148 0.010354 -0.077638
v -0.066412 -0.018032 -0.083454
v -0.029897 -0.005076 -0.086554
v -0.012427 -0.018906 -0.095964
v 0.011771 -0.005333 -0.092634
v 0.021216 0.001621 -0.085231
v 0.026679 -0.019771 -0.088286
v -0.076839 -0.021174 -0.075949
v -0.075222 -0.036038 -0.087727
v -0.075853 -0.055162 -0.091826
v -0.062811 -0.049771 -0.101299
v -0.048490 -0.037154 -0.098890
v -0.034649 -0.050504 -0.102666
v -0.004413 -0.055543 -0.112550
v 0.020248 -0.046965 -0.108497
v 0.028959 -0.076046 -0.115102
v 0.068773 -0.059667 -0.077749
v -0.079776 -0.079292 -0.087993
v -0.062026 -0.099636 -0.107557
v -0.010099 -0.074900 -0.115232
v 0.052786 -0.075621 -0.095506
v -0.078145 -0.111120 -0.095513
v 0.075472 -0.098195 -0.090843
v 0.058729 -0.103835 -0.108048
v 0.093052 -0.107858 -0.082508
v 0.058369 -0.123516 -0.122263
v 0.086815 -0.125646 -0.104377
v 0.002651 -0.041325 -0.109965
v 0.011816 -0.052488 -0.114607
v -0.037946 -0.078897 -0.114621
v -0.055308 -0.086739 -0.111347
v -0.015988 -0.101029 -0.123823
v 0.011874 -0.086535 -0.122141
v 0.032676 -0.107692 -0.121480
v -0.034176 -0.130089 -0.131705
v -0.055893 -0.128642 -0.121605
v -0.037689 -0.113550 -0.124227
v 0.002651 -0.112530 -0.129235
v 0.030392 -0.127041 -0.131665
v -0.090175 -0.124456 -0.085114
v -0.043880 -0.125397 0.091136
v 0.030381 -0.119287 0.100771
vn -0.5773 0.5774 0.5774
vn -0.5773 0.5773 0.5774
vn -0.5774 0.5773 0.5774
vn -0.3778 0.5070 0.7748
vn 0.3080 0.6707 0.6747
vn -0.3666 0.6579 0.6579
vn 0.5774 0.5773 0.5774
vn 0.5773 0.5773 0.5774
vn 0.5774 0.5774 0.5773
vn -0.6227 0.4736 0.6228
vn -0.7070 0.0158 0.7070
vn -0.7065 0.0426 0.7065
vn -0.5891 0.5531 0.5891
vn -0.7064 0.0436 0.7064
vn 0.6923 0.2036 0.6923
vn 0.6505 0.3922 0.6505
vn 0.5774 0.5773 0.5773
vn -0.7071 -0.0080 0.7071
vn -0.4957 -0.1172 0.8606
vn 0.3023 -0.1513 0.9411
vn 0.6615 0.3532 0.6615
vn 0.7064 0.0428 0.7065
vn -0.7070 0.0159 0.7070
vn -0.4404 0.0439 0.8967
vn 0.6559 0.2429 0.7147
vn -0.6379 0.4315 0.6379
vn -0.2821 0.5594 0.7794
vn -0.6736 0.3043 0.6735
vn 0.5914 -0.5482 0.5914
vn 0.6916 0.2086 0.6916
vn 0.5774 -0.5773 0.5773
vn -0.2276 -0.6886 0.6885
vn -0.5773 0.5774 0.5773
vn -0.3637 0.6587 0.6587
vn 0.5773 0.5774 0.5774
vn 0.7063 0.7063 -0.0487
vn 0.5773 0.5775 -0.5773
vn -0.5774 0.5774 0.5773
vn -0.6089 0.5084 0.6089
vn 0.6328 0.4462 0.6328
vn -0.6153 0.4928 0.6152
vn 0.6706 0.6706 0.3172
vn 0.6547 0.6547 -0.3777
vn -0.6119 0.5011 0.6119
vn -0.6435 0.4146 0.6435
vn -0.6364 0.4359 0.6364
vn -0.6909 0.2129 0.6909
vn -0.7033 0.1041 0.7033
vn -0.7034 0.1026 0.7034
vn -0.7057 0.0625 0.7057
vn 0.5839 0.5641 0.5839
vn 0.6042 0.5195 0.6042
vn -0.6499 0.3940 0.6499
vn 0.6853 0.2465 0.6853
vn 0.6512 0.3897 0.6512
vn 0.6181 0.4856 0.6182
vn -0.6734 0.3050 0.6734
vn -0.7065 0.0400 0.7065
vn -0.5773 -0.5774 0.5774
vn 0.5774 -0.5773 0.5774
vn 0.5774 -0.5774 0.5773
vn 0.5863 0.5590 0.5863
vn -0.5774 -0.5774 0.5773
vn -0.6685 0.6685 0.3260
vn -0.5778 0.5777 -0.5766
vn -0.5774 0.5773 0.5773
vn 0.5772 0.5774 0.5774
vn 0.5773 0.5773 -0.5774
vn 0.5774 0.5774 -0.5773
vn -0.6125 0.6125 -0.4997
vn 0.5773 0.5774 -0.5774
vn 0.5774 0.5773 -0.5773
vn -0.6326 0.6325 0.4470
vn -0.7071 0.7071 -0.0034
vn -0.6327 0.6327 0.4465
vn -0.6366 0.6366 -0.4352
vn -0.6503 0.6503 -0.3927
vn 0.6704 0.6705 0.3179
vn 0.5773 0.5774 -0.5773
vn -0.6077 0.5554 0.5676
vn 0.6794 0.6793 0.2774
vn 0.6952 0.6952 -0.1825
vn -0.6920 0.2057 0.6920
vn -0.7069 0.7069 0.0239
vn 0.7062 0.7062 0.0506
vn 0.6170 0.6170 0.4885
vn -0.7071 0.0075 0.7071
vn 0.6215 0.6215 -0.4770
vn -0.7027 0.1110 0.7027
vn 0.6217 0.4765 0.6216
vn -0.6414 0.4210 0.6414
vn 0.6835 0.6835 0.2561
vn 0.6388 -0.6387 0.4290
vn 0.6882 0.5936 -0.4172
vn -0.5773 0.5774 -0.5773
vn -0.4252 0.6400 -0.6400
vn -0.4915 0.6158 -0.6158
vn 0.5774 0.5773 -0.5774
vn -0.7050 0.7050 -0.0774
vn -0.5773 0.5773 -0.5774
vn -0.5774 0.5773 -0.5774
vn -0.5773 0.5773 -0.5775
vn -0.5774 0.5773 -0.5773
vn 0.6929 0.6929 -0.1994
vn -0.9423 0.3019 -0.1444
vn -0.6081 0.5104 -0.6081
vn -0.9452 0.0638 -0.3201
vn -0.9794 0.1854 0.0806
vn -0.6154 0.4924 -0.6154
vn -0.6950 -0.6950 -0.1845
vn -0.7003 -0.7003 0.1385
vn -0.5773 0.5774 -0.5774
vn -0.0353 0.7067 -0.7067
vn -0.0187 0.7070 -0.7070
vn -0.5774 0.5774 -0.5773
vn -0.6628 0.3484 -0.6628
vn -0.6851 0.2475 -0.6851
vn -0.6720 -0.3112 -0.6720
vn -0.6040 0.5200 -0.6040
vn 0.7092 -0.6036 -0.3642
vn -0.5338 0.5979 -0.5979
vn -0.5688 0.5816 -0.5816
vn -0.6512 0.3897 -0.6512
vn -0.5354 0.5972 -0.5973
vn -0.2176 0.6901 -0.6902
vn -0.6832 0.2582 -0.6831
vn -0.6044 0.5190 -0.6044
vn -0.5539 0.5887 -0.5887
vn -0.5827 0.5665 -0.5827
vn 0.5774 -0.5774 -0.5773
vn -0.5237 0.6024 -0.6024
vn 0.4634 0.6266 -0.6266
vn -0.5669 0.5825 -0.5825
vn -0.6003 0.5284 -0.6003
vn -0.3992 0.6483 -0.6483
vn 0.2816 0.6785 -0.6785
vn -0.3830 -0.6532 -0.6532
vn -0.5773 -0.5773 -0.5774
vn 0.0705 0.7053 -0.7054
vn 0.4326 -0.6375 -0.6375
vn -0.2819 -0.6784 0.6784
vn 0.3029 -0.6739 0.6739
usemtl None.001
s 1
f 1//1 2//2 3//3
f 4//1 2//2 1//1
f 5//4 6//5 7//6
f 7//6 6//5 8//7
f 3//3 7//6 9//7
f 9//7 7//6 8//7
f 2//2 5//4 3//3
f 3//3 5//4 7//6
f 8//7 6//5 10//8
f 8//7 10//8 11//8
f 10//8 12//9 11//8
f 13//10 14//11 15//12
f 16//13 5//4 2//2
f 16//13 17//14 5//4
f 16//13 15//12 17//14
f 4//1 13//10 2//2
f 13//10 16//13 2//2
f 15//12 16//13 13//10
f 6//5 5//4 18//15
f 6//5 18//15 10//8
f 10//8 18//15 19//16
f 12//9 10//8 20//17
f 19//16 20//17 10//8
f 14//11 21//18 15//12
f 17//14 22//19 5//4
f 5//4 23//20 18//15
f 5//4 22//19 23//20
f 18//15 24//21 19//16
f 23//20 25//22 18//15
f 18//15 25//22 24//21
f 19//16 24//21 26//9
f 15//12 27//23 17//14
f 17//14 27//23 22//19
f 27//23 28//24 22//19
f 21//18 27//23 15//12
f 22//19 28//24 23//20
f 23//20 29//25 25//22
f 14//11 30//26 21//18
f 27//23 31//27 28//24
f 27//23 21//18 32//28
f 27//23 32//28 31//27
f 30//26 32//28 21//18
f 28//24 29//25 23//20
f 28//24 31//27 29//25
f 33//29 25//22 29//25
f 25//22 34//30 24//21
f 25//22 33//29 34//30
f 34//30 33//29 35//31
f 32//28 36//32 31//27
f 37//33 38//1 39//34
f 40//9 41//35 42//36
f 42//36 41//35 43//37
f 44//38 45//2 38//1
f 46//39 45//2 44//38
f 47//38 48//33 49//38
f 49//38 44//38 47//38
f 49//38 46//39 44//38
f 47//38 44//38 37//33
f 44//38 38//1 37//33
f 39//34 38//1 45//2
f 45//2 50//35 39//34
f 45//2 51//40 50//35
f 52//8 50//35 51//40
f 45//2 46//39 53//41
f 45//2 53//41 51//40
f 39//34 50//35 40//9
f 41//35 40//9 50//35
f 52//8 41//35 50//35
f 54//9 41//35 52//8
f 54//9 52//8 55//17
f 41//35 56//42 43//37
f 41//35 54//9 56//42
f 57//8 56//42 54//9
f 58//38 4//1 59//2
f 59//2 4//1 48//33
f 60//1 59//2 47//38
f 59//2 48//33 47//38
f 60//1 61//3 59//2
f 58//38 59//2 61//3
f 62//38 46//39 49//38
f 46//39 62//38 53//41
f 62//38 49//38 48//33
f 52//8 51//40 55//17
f 53//41 9//7 51//40
f 55//17 51//40 9//7
f 62//38 3//3 53//41
f 53//41 3//3 9//7
f 8//7 55//17 9//7
f 8//7 11//8 55//17
f 54//9 55//17 57//8
f 57//8 55//17 11//8
f 63//35 57//8 11//8
f 63//35 64//43 57//8
f 65//1 66//44 67//45
f 68//46 4//1 58//38
f 67//45 68//46 58//38
f 58//38 65//1 67//45
f 61//3 65//1 58//38
f 62//38 1//1 3//3
f 4//1 1//1 62//38
f 48//33 4//1 62//38
f 63//35 11//8 12//9
f 12//9 69//17 63//35
f 70//47 71//48 67//45
f 70//47 72//49 71//48
f 68//46 13//10 4//1
f 73//50 68//46 71//48
f 73//50 14//11 13//10
f 73//50 13//10 68//46
f 71//48 68//46 67//45
f 74//8 20//17 19//16
f 74//8 19//16 26//9
f 12//9 20//17 69//17
f 20//17 74//8 69//17
f 75//7 74//8 26//9
f 69//17 74//8 76//8
f 75//7 76//8 74//8
f 77//9 76//8 75//7
f 24//21 78//51 26//9
f 26//9 78//51 75//7
f 79//52 75//7 78//51
f 79//52 77//9 75//7
f 80//8 77//9 79//52
f 14//11 73//50 81//53
f 71//48 72//49 73//50
f 73//50 72//49 81//53
f 24//21 34//30 78//51
f 78//51 34//30 82//54
f 82//54 34//30 83//55
f 79//52 78//51 82//54
f 80//8 79//52 84//56
f 84//56 79//52 82//54
f 81//53 72//49 85//57
f 86//58 85//57 72//49
f 14//11 81//53 30//26
f 30//26 81//53 87//59
f 83//55 34//30 35//31
f 83//55 35//31 88//60
f 89//61 83//55 88//60
f 83//55 90//62 82//54
f 83//55 89//61 90//62
f 84//56 82//54 90//62
f 91//63 81//53 85//57
f 91//63 87//59 81//53
f 92//64 93//38 94//65
f 39//34 95//66 37//33
f 39//34 96//67 95//66
f 95//66 93//38 37//33
f 95//66 96//67 97//68
f 96//67 98//69 97//68
f 93//38 99//66 37//33
f 95//66 97//68 100//70
f 93//38 95//66 100//70
f 94//65 93//38 100//70
f 39//34 40//9 96//67
f 96//67 40//9 98//69
f 42//36 98//69 40//9
f 42//36 43//37 98//69
f 98//69 43//37 101//71
f 102//72 97//68 98//69
f 102//72 98//69 101//71
f 103//3 60//1 47//38
f 103//3 104//73 60//1
f 103//3 93//38 105//66
f 99//66 93//38 103//3
f 105//66 104//73 103//3
f 104//73 105//66 106//74
f 103//3 47//38 99//66
f 99//66 47//38 37//33
f 43//37 107//68 108//71
f 57//8 43//37 56//42
f 107//68 43//37 57//8
f 109//38 65//1 61//3
f 110//75 65//1 109//38
f 111//76 109//38 112//77
f 111//76 110//75 109//38
f 104//73 109//38 61//3
f 60//1 104//73 61//3
f 109//38 104//73 106//74
f 109//38 106//74 112//77
f 64//43 63//35 113//78
f 107//68 57//8 64//43
f 114//71 107//68 64//43
f 64//43 113//78 114//71
f 108//71 107//68 114//71
f 115//79 108//71 114//71
f 66//44 65//1 110//75
f 116//80 66//44 110//75
f 111//76 116//80 110//75
f 69//17 113//78 63//35
f 69//17 117//81 113//78
f 113//78 117//81 114//71
f 114//71 118//68 115//79
f 114//71 117//81 118//68
f 69//17 76//8 117//81
f 119//82 117//81 76//8
f 117//81 119//82 118//68
f 67//45 66//44 70//47
f 72//49 70//47 86//58
f 70//47 66//44 116//80
f 70//47 116//80 120//83
f 116//80 111//76 121//84
f 121//84 120//83 116//80
f 76//8 122//85 119//82
f 76//8 77//9 122//85
f 77//9 123//86 122//85
f 122//85 123//86 124//71
f 70//47 120//83 86//58
f 86//58 120//83 125//87
f 80//8 123//86 77//9
f 123//86 126//88 124//71
f 126//88 127//72 124//71
f 86//58 125//87 128//89
f 84//56 123//86 80//8
f 84//56 129//90 123//86
f 129//90 126//88 123//86
f 127//72 126//88 130//69
f 130//69 126//88 129//90
f 85//57 86//58 128//89
f 128//89 131//59 85//57
f 131//59 128//89 132//91
f 125//87 132//91 128//89
f 90//62 129//90 84//56
f 89//61 133//60 90//62
f 134//92 129//90 90//62
f 133//60 134//92 90//62
f 133//60 135//93 134//92
f 129//90 134//92 130//69
f 135//93 136//94 134//92
f 93//38 92//64 105//66
f 137//95 92//64 94//65
f 138//96 137//95 94//65
f 139//97 137//95 138//96
f 100//70 138//96 94//65
f 100//70 97//68 138//96
f 138//96 97//68 102//72
f 140//98 138//96 102//72
f 140//98 102//72 141//69
f 140//98 139//97 138//96
f 101//71 141//69 102//72
f 92//64 142//99 105//66
f 92//64 137//95 142//99
f 143//100 142//99 137//95
f 139//97 144//101 137//95
f 145//101 143//100 137//95
f 137//95 144//101 145//101
f 141//69 101//71 108//71
f 43//37 108//71 101//71
f 146//98 147//98 108//71
f 147//98 141//69 108//71
f 148//102 111//76 112//77
f 106//74 105//66 142//99
f 106//74 142//99 143//100
f 143//100 112//77 106//74
f 143//100 148//102 112//77
f 149//103 148//102 143//100
f 108//71 150//68 146//98
f 147//98 146//98 151//98
f 150//68 108//71 115//79
f 148//102 152//103 111//76
f 153//103 111//76 152//103
f 149//103 152//103 148//102
f 149//103 154//101 152//103
f 154//101 153//103 152//103
f 150//68 115//79 155//72
f 115//79 118//68 155//72
f 156//68 155//72 118//68
f 157//69 150//68 155//72
f 146//98 150//68 157//69
f 155//72 158//72 157//69
f 158//72 155//72 156//68
f 159//72 157//69 158//72
f 160//71 159//72 158//72
f 118//68 119//82 156//68
f 153//103 121//84 111//76
f 122//85 124//71 161//104
f 156//68 122//85 162//68
f 119//82 122//85 156//68
f 161//104 162//68 122//85
f 158//72 156//68 162//68
f 161//104 163//79 162//68
f 164//68 160//71 158//72
f 164//68 158//72 162//68
f 162//68 163//79 164//68
f 164//68 163//79 165//69
f 166//105 125//87 120//83
f 121//84 166//105 120//83
f 153//103 166//105 121//84
f 167//106 166//105 153//103
f 127//72 168//68 124//71
f 161//104 124//71 168//68
f 168//68 163//79 161//104
f 165//69 163//79 169//79
f 168//68 169//79 163//79
f 170//107 125//87 166//105
f 170//107 171//108 125//87
f 167//106 170//107 166//105
f 172//109 170//107 167//106
f 127//72 173//69 168//68
f 173//69 169//79 168//68
f 173//69 127//72 174//72
f 171//108 132//91 125//87
f 175//110 132//91 171//108
f 176//69 130//69 134//92
f 136//94 176//69 134//92
f 127//72 130//69 176//69
f 176//69 174//72 127//72
f 176//69 136//94 177//68
f 178//111 132//91 175//110
f 147//98 140//98 141//69
f 145//101 149//103 143//100
f 179//112 145//101 144//101
f 180//95 149//103 145//101
f 145//101 179//112 180//95
f 179//112 144//101 139//97
f 179//112 139//97 140//98
f 147//98 181//98 140//98
f 151//98 181//98 147//98
f 140//98 182//113 179//112
f 181//98 182//113 140//98
f 183//68 151//98 146//98
f 183//68 181//98 151//98
f 149//103 184//112 154//101
f 149//103 180//95 184//112
f 179//112 185//103 180//95
f 180//95 185//103 184//112
f 186//101 184//112 185//103
f 187//95 185//103 179//112
f 182//113 187//95 179//112
f 187//95 182//113 188//114
f 181//98 188//114 182//113
f 146//98 157//69 183//68
f 183//68 157//69 189//71
f 188//114 181//98 190//71
f 190//71 181//98 183//68
f 154//101 184//112 153//103
f 153//103 184//112 191//100
f 192//101 191//100 184//112
f 186//101 192//101 184//112
f 193//79 157//69 159//72
f 194//72 159//72 160//71
f 195//71 193//79 159//72
f 159//72 194//72 195//71
f 189//71 157//69 193//79
f 189//71 193//79 195//71
f 196//72 160//71 164//68
f 194//72 160//71 196//72
f 165//69 196//72 164//68
f 197//115 167//106 191//100
f 191//100 167//106 153//103
f 172//109 167//106 197//115
f 192//101 197//115 191//100
f 198//68 195//71 194//72
f 199//69 189//71 195//71
f 199//69 195//71 198//68
f 200//69 196//72 165//69
f 169//79 200//69 165//69
f 169//79 201//98 200//69
f 196//72 198//68 194//72
f 200//69 198//68 196//72
f 202//116 170//107 172//109
f 203//101 172//109 197//115
f 203//101 204//117 172//109
f 204//117 202//116 172//109
f 201//98 169//79 173//69
f 173//69 205//69 201//98
f 206//98 201//98 205//69
f 200//69 201//98 206//98
f 202//116 171//108 170//107
f 202//116 175//110 171//108
f 207//118 175//110 202//116
f 208//119 202//116 204//117
f 208//119 207//118 202//116
f 173//69 174//72 205//69
f 174//72 176//69 177//68
f 205//69 174//72 209//68
f 174//72 177//68 209//68
f 209//68 177//68 210//120
f 211//112 186//101 185//103
f 212//95 185//103 187//95
f 211//112 185//103 212//95
f 213//100 192//101 186//101
f 213//100 186//101 211//112
f 212//95 187//95 188//114
f 214//121 212//95 215//122
f 212//95 214//121 211//112
f 216//72 188//114 190//71
f 183//68 217//98 190//71
f 217//98 216//72 190//71
f 189//71 217//98 183//68
f 215//122 212//95 188//114
f 218//71 217//98 189//71
f 188//114 216//72 215//122
f 219//100 203//101 197//115
f 220//101 203//101 219//100
f 221//123 203//101 220//101
f 192//101 213//100 219//100
f 197//115 192//101 219//100
f 213//100 220//101 219//100
f 220//101 213//100 222//115
f 211//112 223//124 213//100
f 213//100 223//124 222//115
f 214//121 223//124 211//112
f 214//121 215//122 223//124
f 224//125 223//124 215//122
f 224//125 215//122 225//101
f 216//72 217//98 218//71
f 218//71 226//79 216//72
f 226//79 218//71 227//69
f 228//69 199//69 198//68
f 218//71 189//71 199//69
f 227//69 218//71 199//69
f 221//123 204//117 203//101
f 229//126 204//117 221//123
f 222//115 221//123 220//101
f 230//127 229//126 221//123
f 231//128 224//125 225//101
f 232//98 227//69 199//69
f 199//69 228//69 232//98
f 200//69 228//69 198//68
f 200//69 206//98 228//69
f 229//126 208//119 204//117
f 229//126 233//129 208//119
f 230//127 233//129 229//126
f 232//98 228//69 234//71
f 234//71 235//79 232//98
f 206//98 205//69 236//79
f 236//79 205//69 209//68
f 234//71 228//69 206//98
f 234//71 206//98 236//79
f 237//130 235//79 234//71
f 238//130 237//130 236//79
f 237//130 234//71 236//79
f 238//130 236//79 209//68
f 215//122 216//72 239//131
f 225//101 215//122 239//131
f 240//132 239//131 216//72
f 226//79 240//132 216//72
f 223//124 241//133 222//115
f 241//133 223//124 224//125
f 242//134 221//123 222//115
f 242//134 222//115 241//133
f 242//134 230//127 221//123
f 241//133 224//125 231//128
f 231//128 243//135 241//133
f 239//131 240//132 225//101
f 227//69 240//132 226//79
f 244//136 225//101 240//132
f 244//136 240//132 227//69
f 231//128 225//101 244//136
f 245//98 244//136 227//69
f 246//137 247//138 230//127
f 230//127 247//138 233//129
f 248//95 242//134 241//133
f 230//127 242//134 248//95
f 230//127 248//95 246//137
f 248//95 241//133 243//135
f 231//128 249//139 243//135
f 249//139 231//128 244//136
f 245//98 249//139 244//136
f 235//79 227//69 232//98
f 235//79 245//98 227//69
f 237//130 245//98 235//79
f 246//137 248//95 243//135
f 246//137 243//135 249//139
f 249//139 245//98 250//140
f 251//138 208//119 233//129
f 32//28 30//26 252//141
f 253//142 29//25 31//27
f 246//137 249//139 250//140
f 252//141 30//26 87//59
f 131//59 132//91 178//111
f 91//63 85//57 131//59
f 36//32 32//28 252//141
f 238//130 209//68 210//120
f 207//118 208//119 251//138
f 210//120 177//68 136//94
f 175//110 207//118 251//138
f 253//142 31//27 36//32
f 250//140 245//98 237//130
f 91//63 131//59 178//111
f 251//138 233//129 247//138
f 210//120 136//94 135//93
f 33//29 29//25 253//142
f 238//130 210//120 135//93
f 175//110 251//138 247//138
f 175//110 247//138 246//137
f 175//110 246//137 250//140
f 178//111 175//110 250//140
f 91//63 178//111 250//140
f 91//63 250//140 237//130
f 91//63 237//130 238//130
f 91//63 238//130 135//93
f 36//32 252//141 87//59
f 253//142 36//32 87//59
f 87//59 91//63 135//93
f 253//142 87//59 135//93
f 253//142 135//93 133//60
f 253//142 133//60 89//61
f 253//142 89//61 88//60
f 35//31 33//29 253//142
f 35//31 253//142 88//60
